# Original linear-stage display fixture; millimetres
o base
v -160.0 -55.0 0.0
v 160.0 -55.0 0.0
v 160.0 55.0 0.0
v -160.0 55.0 0.0
v -160.0 -55.0 10.0
v 160.0 -55.0 10.0
v 160.0 55.0 10.0
v -160.0 55.0 10.0
f 1 4 3 2
f 5 6 7 8
f 1 2 6 5
f 2 3 7 6
f 3 4 8 7
f 4 1 5 8
o guide
v -145.0 -10.0 18.0
v 145.0 -10.0 18.0
v 145.0 10.0 18.0
v -145.0 10.0 18.0
v -145.0 -10.0 32.0
v 145.0 -10.0 32.0
v 145.0 10.0 32.0
v -145.0 10.0 32.0
f 9 12 11 10
f 13 14 15 16
f 9 10 14 13
f 10 11 15 14
f 11 12 16 15
f 12 9 13 16
o carriage-left
v -120.0 -17.0 13.0
v -60.0 -17.0 13.0
v -60.0 -9.0 13.0
v -120.0 -9.0 13.0
v -120.0 -17.0 41.0
v -60.0 -17.0 41.0
v -60.0 -9.0 41.0
v -120.0 -9.0 41.0
f 17 20 19 18
f 21 22 23 24
f 17 18 22 21
f 18 19 23 22
f 19 20 24 23
f 20 17 21 24
o carriage-right
v -120.0 9.0 13.0
v -60.0 9.0 13.0
v -60.0 17.0 13.0
v -120.0 17.0 13.0
v -120.0 9.0 41.0
v -60.0 9.0 41.0
v -60.0 17.0 41.0
v -120.0 17.0 41.0
f 25 28 27 26
f 29 30 31 32
f 25 26 30 29
f 26 27 31 30
f 27 28 32 31
f 28 25 29 32
o carriage-bridge
v -120.0 -17.0 41.0
v -60.0 -17.0 41.0
v -60.0 17.0 41.0
v -120.0 17.0 41.0
v -120.0 -17.0 49.0
v -60.0 -17.0 49.0
v -60.0 17.0 49.0
v -120.0 17.0 49.0
f 33 36 35 34
f 37 38 39 40
f 33 34 38 37
f 34 35 39 38
f 35 36 40 39
f 36 33 37 40
